<svg xmlns="http://www.w3.org/2000/svg" width="24" height="23" viewBox="0 0 24 23" fill="none">
  <path d="M0.469336 22.9347C0.274852 22.8509 0.178369 22.7603 0.0805621 22.5698C0.00222397 22.4174 0 22.1571 0 13.2114C0 4.26573 0.00223266 4.00555 0.0805621 3.85301C0.180092 3.65909 0.276755 3.57019 0.4789 3.48626C0.609145 3.43217 0.872512 3.42125 2.04119 3.42125H3.44682V2.02431C3.44682 0.862861 3.45782 0.601134 3.51228 0.471695C3.59698 0.2703 3.68632 0.174736 3.88372 0.0746135C4.03603 -0.00249202 4.14108 -0.00623348 5.99328 0.0049871L7.94253 0.0164891L8.11357 0.128984C8.43868 0.342751 8.44524 0.37843 8.4591 1.99353L8.47126 3.42081H12H15.5287L15.5409 1.99353C15.5548 0.378258 15.5614 0.342837 15.8864 0.128984L16.0574 0.0164891L18.0067 0.0049871C19.8589 -0.00652119 19.9639 -0.00364285 20.1162 0.0746135C20.3137 0.174736 20.403 0.270242 20.4877 0.471695C20.5415 0.599724 20.5532 0.847772 20.5536 1.86574C20.5539 2.54683 20.566 3.17542 20.5805 3.26266L20.6069 3.42118H21.9857C23.1302 3.42118 23.3911 3.43271 23.5211 3.48622C23.7233 3.57023 23.8199 3.65911 23.9194 3.85294C23.9978 4.00543 24 4.26566 24 13.2114C24 22.1571 23.9978 22.4173 23.9194 22.5698C23.8199 22.7637 23.7232 22.8526 23.5211 22.9365C23.3814 22.9947 22.1323 23.0013 11.9907 22.9998C1.95943 22.9984 0.599576 22.9913 0.469336 22.9347ZM22.4682 15.1568V8.83439H12.0001H1.53191V15.1568V21.4792H12.0001H22.4682V15.1568ZM22.4682 6.10667V4.94368H12.0001H1.53191V6.10667V7.26964H12.0001H22.4682V6.10667ZM6.93574 2.62829C6.93549 2.19216 6.92329 1.76397 6.90882 1.67677L6.88247 1.51824H5.93059H4.97869V2.46977V3.42131H5.95743H6.93616L6.93574 2.62829ZM19.0214 2.46977V1.51824H18.064H17.1065V2.46977V3.42131H18.064H19.0214V2.46977Z" fill="#237131"/>
</svg>