<svg width="25" height="25" viewBox="0 0 25 25" fill="none" xmlns="http://www.w3.org/2000/svg">
<path d="M17.6806 0H7.31944L0 7.31944V17.6806L7.31944 25H17.6806L25 17.6806V7.31944L17.6806 0ZM22.2222 16.5278L16.5278 22.2222H8.47222L2.77778 16.5278V8.47222L8.47222 2.77778H16.5278L22.2222 8.47222V16.5278Z" fill="#237131"/>
<path d="M12.5 19.4444C13.2671 19.4444 13.8889 18.8226 13.8889 18.0556C13.8889 17.2885 13.2671 16.6667 12.5 16.6667C11.7329 16.6667 11.1111 17.2885 11.1111 18.0556C11.1111 18.8226 11.7329 19.4444 12.5 19.4444Z" fill="#237131"/>
<path d="M11.1111 5.55556H13.8889V15.2778H11.1111V5.55556Z" fill="#237131"/>
</svg>
