<svg width="36" height="26" viewBox="0 0 36 26" fill="none" xmlns="http://www.w3.org/2000/svg">
<path d="M21.25 8.95837V7.37504C22.1389 6.9306 23.0833 6.60421 24.0833 6.39587C25.0833 6.18754 26.1111 6.08337 27.1667 6.08337C27.8333 6.08337 28.4792 6.13199 29.1042 6.22921C29.7292 6.32643 30.3611 6.45837 31 6.62504V8.08337C30.3889 7.86115 29.7708 7.70143 29.1458 7.60421C28.5208 7.50698 27.8611 7.45837 27.1667 7.45837C26.1111 7.45837 25.0833 7.59032 24.0833 7.85421C23.0833 8.1181 22.1389 8.48615 21.25 8.95837ZM21.25 18.0834V16.4167C22.1389 16.0278 23.0833 15.7292 24.0833 15.5209C25.0833 15.3125 26.1111 15.2084 27.1667 15.2084C27.8333 15.2084 28.4792 15.257 29.1042 15.3542C29.7292 15.4514 30.3611 15.5695 31 15.7084V17.2084C30.3889 16.9862 29.7708 16.8264 29.1458 16.7292C28.5208 16.632 27.8611 16.5834 27.1667 16.5834C26.1111 16.5834 25.0833 16.7084 24.0833 16.9584C23.0833 17.2084 22.1389 17.5834 21.25 18.0834ZM21.25 13.5417V11.9167C22.1389 11.5 23.0833 11.1806 24.0833 10.9584C25.0833 10.7362 26.1111 10.625 27.1667 10.625C27.8333 10.625 28.4792 10.6737 29.1042 10.7709C29.7292 10.8681 30.3611 11 31 11.1667V12.625C30.3889 12.4306 29.7708 12.2848 29.1458 12.1875C28.5208 12.0903 27.8611 12.0417 27.1667 12.0417C26.1111 12.0417 25.0833 12.1737 24.0833 12.4375C23.0833 12.7014 22.1389 13.0695 21.25 13.5417ZM8.45833 20.2917C9.98611 20.2917 11.4653 20.4723 12.8958 20.8334C14.3264 21.1945 15.7361 21.75 17.125 22.5V5.08337C15.875 4.19449 14.5 3.52087 13 3.06254C11.5 2.60421 9.98611 2.37504 8.45833 2.37504C7.40278 2.37504 6.4375 2.47226 5.5625 2.66671C4.6875 2.86115 3.75 3.13893 2.75 3.50004C2.61111 3.5556 2.51389 3.62504 2.45833 3.70837C2.40278 3.79171 2.375 3.87504 2.375 3.95837V20.875C2.375 21.0139 2.43056 21.1181 2.54167 21.1875C2.65278 21.257 2.77778 21.2778 2.91667 21.25C3.61111 20.9167 4.44444 20.6737 5.41667 20.5209C6.38889 20.3681 7.40278 20.2917 8.45833 20.2917ZM19 22.5C20.4167 21.75 21.8125 21.1945 23.1875 20.8334C24.5625 20.4723 26.0139 20.2917 27.5417 20.2917C28.5972 20.2917 29.6181 20.3681 30.6042 20.5209C31.5903 20.6737 32.4167 20.8612 33.0833 21.0834C33.2222 21.1389 33.3472 21.132 33.4583 21.0625C33.5694 20.9931 33.625 20.875 33.625 20.7084V3.95837C33.625 3.87504 33.5972 3.79171 33.5417 3.70837C33.4861 3.62504 33.3889 3.5556 33.25 3.50004C32.3333 3.11115 31.4167 2.82643 30.5 2.64587C29.5833 2.46532 28.5972 2.37504 27.5417 2.37504C26.0139 2.37504 24.5208 2.60421 23.0625 3.06254C21.6042 3.52087 20.25 4.19449 19 5.08337V22.5ZM18.0417 25.2917C16.6528 24.3195 15.1389 23.5625 13.5 23.0209C11.8611 22.4792 10.1806 22.2084 8.45833 22.2084C7.56944 22.2084 6.6875 22.3056 5.8125 22.5C4.9375 22.6945 4.05556 22.9306 3.16667 23.2084C2.52778 23.5139 1.92361 23.4653 1.35417 23.0625C0.784722 22.6598 0.5 22.0973 0.5 21.375V3.83337C0.5 3.38893 0.611111 2.98615 0.833333 2.62504C1.05556 2.26393 1.36111 1.98615 1.75 1.79171C2.80556 1.34726 3.89583 1.01393 5.02083 0.791708C6.14583 0.569486 7.29167 0.458374 8.45833 0.458374C10.1806 0.458374 11.8542 0.70143 13.4792 1.18754C15.1042 1.67365 16.6389 2.40282 18.0833 3.37504C19.4722 2.40282 20.9722 1.67365 22.5833 1.18754C24.1944 0.70143 25.8472 0.458374 27.5417 0.458374C28.7083 0.458374 29.8472 0.569486 30.9583 0.791708C32.0694 1.01393 33.1528 1.34726 34.2083 1.79171C34.625 1.98615 34.9444 2.26393 35.1667 2.62504C35.3889 2.98615 35.5 3.38893 35.5 3.83337V21.375C35.5 22.125 35.1875 22.7014 34.5625 23.1042C33.9375 23.507 33.3194 23.5417 32.7083 23.2084C31.8472 22.9028 30.9861 22.6598 30.125 22.4792C29.2639 22.2987 28.4028 22.2084 27.5417 22.2084C25.8194 22.2084 24.1597 22.4792 22.5625 23.0209C20.9653 23.5625 19.4583 24.3195 18.0417 25.2917Z" fill="#237131"/>
</svg>
