<svg xmlns="http://www.w3.org/2000/svg" width="24" height="19" viewBox="0 0 24 19" fill="none">
  <path d="M14.2286 6.66107V5.51342C14.8381 5.19128 15.4857 4.9547 16.1714 4.80369C16.8571 4.65269 17.5619 4.57718 18.2857 4.57718C18.7429 4.57718 19.1857 4.61242 19.6143 4.68289C20.0429 4.75336 20.4762 4.84899 20.9143 4.9698V6.02685C20.4952 5.86577 20.0714 5.75 19.6429 5.67953C19.2143 5.60906 18.7619 5.57383 18.2857 5.57383C17.5619 5.57383 16.8571 5.66946 16.1714 5.86074C15.4857 6.05201 14.8381 6.31879 14.2286 6.66107ZM14.2286 13.2752V12.0671C14.8381 11.7852 15.4857 11.5688 16.1714 11.4178C16.8571 11.2668 17.5619 11.1913 18.2857 11.1913C18.7429 11.1913 19.1857 11.2265 19.6143 11.297C20.0429 11.3674 20.4762 11.453 20.9143 11.5537V12.6409C20.4952 12.4799 20.0714 12.3641 19.6429 12.2936C19.2143 12.2232 18.7619 12.1879 18.2857 12.1879C17.5619 12.1879 16.8571 12.2785 16.1714 12.4597C15.4857 12.6409 14.8381 12.9128 14.2286 13.2752ZM14.2286 9.98322V8.80537C14.8381 8.50336 15.4857 8.27181 16.1714 8.11074C16.8571 7.94966 17.5619 7.86913 18.2857 7.86913C18.7429 7.86913 19.1857 7.90436 19.6143 7.97483C20.0429 8.0453 20.4762 8.14094 20.9143 8.26174V9.31879C20.4952 9.17785 20.0714 9.07215 19.6429 9.00168C19.2143 8.93121 18.7619 8.89597 18.2857 8.89597C17.5619 8.89597 16.8571 8.99161 16.1714 9.18289C15.4857 9.37416 14.8381 9.64094 14.2286 9.98322ZM5.45714 14.8758C6.50476 14.8758 7.51905 15.0067 8.5 15.2685C9.48095 15.5302 10.4476 15.9329 11.4 16.4765V3.85235C10.5429 3.20805 9.6 2.7198 8.57143 2.38758C7.54286 2.05537 6.50476 1.88926 5.45714 1.88926C4.73333 1.88926 4.07143 1.95973 3.47143 2.10067C2.87143 2.24161 2.22857 2.44295 1.54286 2.7047C1.44762 2.74497 1.38095 2.7953 1.34286 2.85571C1.30476 2.91611 1.28571 2.97651 1.28571 3.03691V15.2987C1.28571 15.3993 1.32381 15.4748 1.4 15.5252C1.47619 15.5755 1.5619 15.5906 1.65714 15.5705C2.13333 15.3289 2.70476 15.1527 3.37143 15.0419C4.03809 14.9312 4.73333 14.8758 5.45714 14.8758ZM12.6857 16.4765C13.6571 15.9329 14.6143 15.5302 15.5571 15.2685C16.5 15.0067 17.4952 14.8758 18.5429 14.8758C19.2667 14.8758 19.9667 14.9312 20.6429 15.0419C21.319 15.1527 21.8857 15.2886 22.3429 15.4497C22.4381 15.4899 22.5238 15.4849 22.6 15.4346C22.6762 15.3842 22.7143 15.2987 22.7143 15.1779V3.03691C22.7143 2.97651 22.6952 2.91611 22.6571 2.85571C22.619 2.7953 22.5524 2.74497 22.4571 2.7047C21.8286 2.42282 21.2 2.21644 20.5714 2.08557C19.9429 1.9547 19.2667 1.88926 18.5429 1.88926C17.4952 1.88926 16.4714 2.05537 15.4714 2.38758C14.4714 2.7198 13.5429 3.20805 12.6857 3.85235V16.4765ZM12.0286 18.5C11.0762 17.7953 10.0381 17.2466 8.91429 16.854C7.79048 16.4614 6.6381 16.2651 5.45714 16.2651C4.84762 16.2651 4.24286 16.3356 3.64286 16.4765C3.04286 16.6175 2.4381 16.7886 1.82857 16.9899C1.39048 17.2114 0.976191 17.1762 0.585714 16.8842C0.195238 16.5923 0 16.1846 0 15.6611V2.94631C0 2.62416 0.0761905 2.33222 0.228571 2.07047C0.380952 1.80873 0.590476 1.60738 0.857143 1.46644C1.58095 1.1443 2.32857 0.902685 3.1 0.741611C3.87143 0.580537 4.65714 0.5 5.45714 0.5C6.6381 0.5 7.78572 0.676175 8.9 1.02852C10.0143 1.38087 11.0667 1.9094 12.0571 2.61409C13.0095 1.9094 14.0381 1.38087 15.1429 1.02852C16.2476 0.676175 17.381 0.5 18.5429 0.5C19.3429 0.5 20.1238 0.580537 20.8857 0.741611C21.6476 0.902685 22.3905 1.1443 23.1143 1.46644C23.4 1.60738 23.619 1.80873 23.7714 2.07047C23.9238 2.33222 24 2.62416 24 2.94631V15.6611C24 16.2047 23.7857 16.6225 23.3571 16.9144C22.9286 17.2064 22.5048 17.2315 22.0857 16.9899C21.4952 16.7685 20.9048 16.5923 20.3143 16.4614C19.7238 16.3305 19.1333 16.2651 18.5429 16.2651C17.3619 16.2651 16.2238 16.4614 15.1286 16.854C14.0333 17.2466 13 17.7953 12.0286 18.5Z" fill="#237131"/>
</svg>