<svg xmlns="http://www.w3.org/2000/svg" width="23" height="24" viewBox="0 0 23 24" fill="none">
  <path d="M1.93768 23.9669C1.82225 23.9368 1.72653 23.8579 1.66251 23.74C1.57281 23.5747 1.56195 23.2713 1.53651 20.2189L1.50866 16.8787L1.16299 16.3501C-0.685738 13.523 -0.303378 10.3754 2.1176 8.4916C3.10159 7.72597 4.35091 7.245 5.53707 7.17517C5.57524 7.17292 5.60822 7.16181 5.63607 7.14674C5.72956 7.09613 5.75 6.97889 5.75 6.87257C5.75 6.72429 5.64914 6.59622 5.50834 6.54972C4.29751 6.14982 3.4273 5.17829 3.17966 3.99077C3.07674 3.49728 3.07674 3.25073 3.17966 2.75724C3.354 1.92122 3.83779 1.21209 4.57035 0.718799C5.39141 0.165909 6.38239 -0.0894877 7.25032 0.0281104C8.91183 0.253233 10.0837 1.21407 10.4486 2.65048C10.5785 3.16215 10.5857 3.51629 10.4765 4.03489C10.3602 4.58776 10.0837 5.10938 9.67639 5.54439C9.24298 6.0073 8.84831 6.26122 8.21608 6.48667C7.95638 6.57927 7.6282 6.82174 7.80357 7.03448C7.85888 7.10158 7.75025 7.15883 8.88072 7.15938C10.4865 7.16014 10.7335 7.20503 11.3842 7.61417C11.4784 7.67341 11.5632 7.64793 11.9801 7.43499L12.0552 7.39663C12.3256 7.25852 12.6238 7.18379 12.9274 7.1781L13.9601 7.15872C14.4259 7.14998 14.7093 7.136 14.8852 7.11879C15.0797 7.09976 15.1341 6.91688 15.0425 6.7442C15.0026 6.66886 14.9351 6.6119 14.8549 6.58295C14.3651 6.40616 14.065 6.23223 13.688 5.91422C12.8302 5.19051 12.3481 4.0201 12.4936 3.01473C12.5774 2.43569 12.7358 2.03419 13.0682 1.55755C13.3953 1.08873 13.8189 0.731949 14.4064 0.430595C14.9955 0.128432 15.3891 0.0378509 16.113 0.0378509C17.2136 0.0378509 18.1731 0.397647 18.9139 1.08816C19.7143 1.83426 20.0925 3.08165 19.8286 4.10515C19.5173 5.31276 18.6992 6.13947 17.3669 6.59277C17.3309 6.60502 17.2975 6.6172 17.2665 6.62925C16.9778 6.74149 16.8619 7.15872 17.1716 7.15872C17.6565 7.15872 18.6076 7.31998 19.0428 7.47595C19.6514 7.69408 20.474 8.14559 21.0148 8.55824C21.8679 9.20933 22.6129 10.3679 22.873 11.4481C23.018 12.0505 23.0425 13.0706 22.9275 13.7189C22.7728 14.5909 22.3508 15.6318 21.8524 16.3711C21.4525 16.9644 21.4742 16.7392 21.4742 20.3016C21.4742 22.2137 21.4525 23.5811 21.421 23.6647C21.2928 24.0042 22.0006 23.9802 11.6077 23.9974C6.38655 24.0061 2.03503 23.9923 1.93768 23.9669ZM7.70716 22.8471C7.7558 22.7981 7.77399 22.372 7.77399 21.2811C7.77399 19.5353 7.79602 19.6064 7.25486 19.6059C6.49624 19.6051 5.19522 19.3279 4.33385 18.9834C4.10611 18.8923 3.72563 18.6924 3.48834 18.5392C3.03737 18.2479 2.93916 18.2165 2.82856 18.3278C2.73258 18.4245 2.73258 22.7504 2.82856 22.8471C2.92466 22.9438 7.61106 22.9438 7.70716 22.8471ZM13.9446 22.8471C13.9934 22.798 14.0115 22.3593 14.0115 21.2239V19.668L13.8305 19.5314C13.7309 19.4562 13.5464 19.3427 13.4204 19.279C12.8257 18.9784 12.396 18.1628 12.4749 17.4842C12.5397 16.9261 12.7784 16.5699 13.502 15.9506C13.7678 15.7232 13.7735 15.6607 13.5445 15.4885C13.3988 15.3789 13.3057 15.372 11.7231 15.3552C9.9582 15.3364 9.52506 15.3762 9.3271 15.5755C9.19272 15.7108 9.25805 15.8635 9.50541 15.9923C9.96933 16.2338 10.4615 16.9017 10.5215 17.3712C10.6242 18.1748 10.2309 18.9536 9.54561 19.3032C9.3905 19.3823 9.20411 19.507 9.13141 19.5802L8.99921 19.7133V21.2465C8.99921 22.3643 9.01732 22.798 9.06604 22.8471C9.16214 22.9438 13.8485 22.9438 13.9446 22.8471ZM20.1821 22.8471C20.2781 22.7504 20.2781 18.4245 20.1821 18.3278C20.0734 18.2184 19.9864 18.2453 19.4219 18.5635C18.3453 19.1704 17.1883 19.5208 16.0442 19.5864C15.7073 19.6058 15.3878 19.6443 15.3342 19.672C15.2449 19.7181 15.2367 19.8517 15.2367 21.251C15.2367 22.3653 15.2548 22.798 15.3035 22.8471C15.3996 22.9438 20.086 22.9438 20.1821 22.8471ZM8.86951 18.4671C9.2039 18.2915 9.40586 17.8301 9.31241 17.4552C9.26085 17.2484 9.00325 16.9669 8.77904 16.8724C8.65047 16.8182 8.25105 16.7731 7.63476 16.7431C6.67059 16.6962 6.01637 16.5737 5.61457 16.3648C5.05216 16.0726 4.63619 15.7742 4.25534 15.3899C3.91554 15.047 3.77516 14.851 3.57257 14.4367C3.29622 13.8715 3.09588 13.1749 3.09588 12.7792C3.09588 12.5708 3.12675 12.4991 3.28523 12.3396C3.44013 12.1836 3.51691 12.1489 3.7072 12.1489C4.00438 12.1489 4.24156 12.3676 4.29113 12.6872C4.39535 13.3592 4.45057 13.5606 4.6332 13.9352C5.0844 14.8606 6.16416 15.5821 7.29879 15.7164C7.67627 15.7611 7.77053 15.7054 8.10736 15.2392C8.61557 14.5357 9.07937 14.3293 10.2101 14.3036C10.4027 14.2992 10.518 14.2461 10.586 14.1915C10.6668 14.1267 10.6929 14.0127 10.6544 13.9166C10.6263 13.8466 10.5678 13.7692 10.4472 13.7237C9.83362 13.4923 9.42359 13.2047 9.10288 12.7808C8.74569 12.3087 8.58371 11.8091 8.58894 11.1957C8.59765 10.1744 9.15728 9.37908 10.2593 8.82208C10.6952 8.60171 10.7055 8.41586 10.2896 8.27047C9.98925 8.16547 5.98184 8.16757 5.29571 8.27312C4.06664 8.46214 3.13047 8.94854 2.3388 9.80945C1.48072 10.7426 1.15763 11.6514 1.21868 12.9605C1.27228 14.11 1.58081 14.9874 2.24446 15.8776C3.34312 17.3514 4.79859 18.2081 6.71585 18.5097C7.4213 18.6206 8.62249 18.5969 8.86951 18.4671ZM16.7682 18.4295C18.4136 18.0996 19.8423 17.1921 20.7458 15.903C21.4804 14.855 21.7752 13.9564 21.7752 12.7657C21.7752 11.8923 21.698 11.5296 21.3632 10.8313C20.753 9.5587 19.5195 8.64055 17.9656 8.30231C17.1653 8.12813 12.8101 8.15338 12.5946 8.33346C12.4255 8.47477 12.5176 8.62438 12.9214 8.8641C14.2763 9.66835 14.7388 10.8624 14.228 12.237C13.995 12.864 13.4057 13.4055 12.647 13.69C12.6074 13.7049 12.57 13.7202 12.5349 13.736C12.1614 13.903 12.3497 14.2674 12.7584 14.2848C13.2313 14.3049 13.6586 14.3545 13.8444 14.4109C14.2475 14.5332 14.6424 14.8335 14.8527 15.1777C15.1824 15.717 15.4915 15.8063 16.301 15.596C17.5037 15.2836 18.4488 14.2849 18.6345 13.1302C18.745 12.4426 18.7896 12.326 18.9792 12.2272C19.2175 12.1032 19.5556 12.1542 19.7423 12.3425C19.8731 12.4744 19.8856 12.5244 19.8726 12.8653C19.8212 14.2192 18.9575 15.5405 17.6871 16.2085C16.9695 16.5859 16.4901 16.6967 15.3759 16.7426C14.317 16.7863 14.1626 16.8234 13.921 17.0918C13.7376 17.2955 13.6773 17.4476 13.6773 17.7067C13.6773 18.095 13.9901 18.448 14.4121 18.536C14.6474 18.5851 16.3839 18.5066 16.7682 18.4295ZM12.262 12.6834C12.8212 12.432 13.2302 11.8368 13.2312 11.2729C13.2324 10.6462 12.9023 10.138 12.3002 9.83958C11.9788 9.68028 11.871 9.6553 11.5053 9.6553C11.1398 9.6553 11.0319 9.6803 10.7111 9.83932C9.71807 10.3315 9.46515 11.5284 10.1945 12.284C10.7472 12.8565 11.5374 13.0091 12.262 12.6834ZM7.52143 5.61495C7.99274 5.49136 8.34265 5.28083 8.69512 4.9088C9.28376 4.28749 9.47016 3.53533 9.2305 2.74842C8.75729 1.19461 6.64415 0.56325 5.2871 1.57022C4.90787 1.85161 4.70648 2.1013 4.49864 2.54779C4.36909 2.82609 4.34894 2.94107 4.34894 3.40204C4.34894 3.86339 4.36904 3.97788 4.49908 4.25725C4.78841 4.87883 5.4463 5.43278 6.10784 5.61186C6.50713 5.71994 7.116 5.72128 7.52143 5.61495ZM16.8777 5.61495C17.349 5.49136 17.6989 5.28083 18.0513 4.9088C18.64 4.28749 18.8264 3.53533 18.5867 2.74842C18.1078 1.176 15.9708 0.555949 14.6145 1.59591C13.0797 2.77277 13.5107 4.98687 15.3925 5.59264C15.7882 5.72003 16.4396 5.72981 16.8777 5.61495Z" fill="#237131"/>
</svg>