<svg width="47" height="48" viewBox="0 0 47 48" fill="none" xmlns="http://www.w3.org/2000/svg">
<g id="Jumbo Icons">
<rect y="0.5" width="47" height="47" rx="23.5" fill="#F4F7F5"/>
<path id="path710" d="M13.9377 36.4669C13.8222 36.4368 13.7265 36.3579 13.6625 36.24C13.5728 36.0747 13.562 35.7713 13.5365 32.7189L13.5087 29.3787L13.163 28.8501C11.3143 26.023 11.6966 22.8754 14.1176 20.9916C15.1016 20.226 16.3509 19.745 17.5371 19.6752C17.5752 19.6729 17.6082 19.6618 17.6361 19.6467C17.7296 19.5961 17.75 19.4789 17.75 19.3726C17.75 19.2243 17.6491 19.0962 17.5083 19.0497C16.2975 18.6498 15.4273 17.6783 15.1797 16.4908C15.0767 15.9973 15.0767 15.7507 15.1797 15.2572C15.354 14.4212 15.8378 13.7121 16.5703 13.2188C17.3914 12.6659 18.3824 12.4105 19.2503 12.5281C20.9118 12.7532 22.0837 13.7141 22.4486 15.1505C22.5785 15.6621 22.5857 16.0163 22.4765 16.5349C22.3602 17.0878 22.0837 17.6094 21.6764 18.0444C21.243 18.5073 20.8483 18.7612 20.2161 18.9867C19.9564 19.0793 19.6282 19.3217 19.8036 19.5345C19.8589 19.6016 19.7503 19.6588 20.8807 19.6594C22.4865 19.6601 22.7335 19.705 23.3842 20.1142C23.4784 20.1734 23.5632 20.1479 23.9801 19.935L24.0552 19.8966C24.3256 19.7585 24.6238 19.6838 24.9274 19.6781L25.9601 19.6587C26.4259 19.65 26.7093 19.636 26.8852 19.6188C27.0797 19.5998 27.1341 19.4169 27.0425 19.2442C27.0026 19.1689 26.9351 19.1119 26.8549 19.0829C26.3651 18.9062 26.065 18.7322 25.688 18.4142C24.8302 17.6905 24.3481 16.5201 24.4936 15.5147C24.5774 14.9357 24.7358 14.5342 25.0682 14.0576C25.3953 13.5887 25.8189 13.2319 26.4064 12.9306C26.9955 12.6284 27.3891 12.5379 28.113 12.5379C29.2136 12.5379 30.1731 12.8976 30.9139 13.5882C31.7143 14.3343 32.0925 15.5817 31.8286 16.6052C31.5173 17.8128 30.6992 18.6395 29.3669 19.0928C29.3309 19.105 29.2975 19.1172 29.2665 19.1293C28.9778 19.2415 28.8619 19.6587 29.1716 19.6587C29.6565 19.6587 30.6076 19.82 31.0428 19.9759C31.6514 20.1941 32.474 20.6456 33.0148 21.0582C33.8679 21.7093 34.6129 22.8679 34.873 23.9481C35.018 24.5505 35.0425 25.5706 34.9275 26.2189C34.7728 27.0909 34.3508 28.1318 33.8524 28.8711C33.4525 29.4644 33.4742 29.2392 33.4742 32.8016C33.4742 34.7137 33.4525 36.0811 33.421 36.1647C33.2928 36.5042 34.0006 36.4802 23.6077 36.4974C18.3866 36.5061 14.035 36.4923 13.9377 36.4669ZM19.7072 35.3471C19.7558 35.2981 19.774 34.872 19.774 33.7811C19.774 32.0353 19.796 32.1064 19.2549 32.1059C18.4962 32.1051 17.1952 31.8279 16.3338 31.4834C16.1061 31.3923 15.7256 31.1924 15.4883 31.0392C15.0374 30.7479 14.9392 30.7165 14.8286 30.8278C14.7326 30.9245 14.7326 35.2504 14.8286 35.3471C14.9247 35.4438 19.6111 35.4438 19.7072 35.3471ZM25.9446 35.3471C25.9934 35.298 26.0115 34.8593 26.0115 33.7239V32.168L25.8305 32.0314C25.7309 31.9562 25.5464 31.8427 25.4204 31.779C24.8257 31.4784 24.396 30.6628 24.4749 29.9842C24.5397 29.4261 24.7784 29.0699 25.502 28.4506C25.7678 28.2232 25.7735 28.1607 25.5445 27.9885C25.3988 27.8789 25.3057 27.872 23.7231 27.8552C21.9582 27.8364 21.5251 27.8762 21.3271 28.0755C21.1927 28.2108 21.2581 28.3635 21.5054 28.4923C21.9693 28.7338 22.4615 29.4017 22.5215 29.8712C22.6242 30.6748 22.2309 31.4536 21.5456 31.8032C21.3905 31.8823 21.2041 32.007 21.1314 32.0802L20.9992 32.2133V33.7465C20.9992 34.8643 21.0173 35.298 21.066 35.3471C21.1621 35.4438 25.8485 35.4438 25.9446 35.3471ZM32.1821 35.3471C32.2781 35.2504 32.2781 30.9245 32.1821 30.8278C32.0734 30.7184 31.9864 30.7453 31.4219 31.0635C30.3453 31.6704 29.1883 32.0208 28.0442 32.0864C27.7073 32.1058 27.3878 32.1443 27.3342 32.172C27.2449 32.2181 27.2367 32.3517 27.2367 33.751C27.2367 34.8653 27.2548 35.298 27.3035 35.3471C27.3996 35.4438 32.086 35.4438 32.1821 35.3471ZM20.8695 30.9671C21.2039 30.7915 21.4059 30.3301 21.3124 29.9552C21.2609 29.7484 21.0033 29.4669 20.779 29.3724C20.6505 29.3182 20.251 29.2731 19.6348 29.2431C18.6706 29.1962 18.0164 29.0737 17.6146 28.8648C17.0522 28.5726 16.6362 28.2742 16.2553 27.8899C15.9155 27.547 15.7752 27.351 15.5726 26.9367C15.2962 26.3715 15.0959 25.6749 15.0959 25.2792C15.0959 25.0708 15.1268 24.9991 15.2852 24.8396C15.4401 24.6836 15.5169 24.6489 15.7072 24.6489C16.0044 24.6489 16.2416 24.8676 16.2911 25.1872C16.3953 25.8592 16.4506 26.0606 16.6332 26.4352C17.0844 27.3606 18.1642 28.0821 19.2988 28.2164C19.6763 28.2611 19.7705 28.2054 20.1074 27.7392C20.6156 27.0357 21.0794 26.8293 22.2101 26.8036C22.4027 26.7992 22.518 26.7461 22.586 26.6915C22.6668 26.6267 22.6929 26.5127 22.6544 26.4166C22.6263 26.3466 22.5678 26.2692 22.4472 26.2237C21.8336 25.9923 21.4236 25.7047 21.1029 25.2808C20.7457 24.8087 20.5837 24.3091 20.5889 23.6957C20.5976 22.6744 21.1573 21.8791 22.2593 21.3221C22.6952 21.1017 22.7055 20.9159 22.2896 20.7705C21.9892 20.6655 17.9818 20.6676 17.2957 20.7731C16.0666 20.9621 15.1305 21.4485 14.3388 22.3094C13.4807 23.2426 13.1576 24.1514 13.2187 25.4605C13.2723 26.61 13.5808 27.4874 14.2445 28.3776C15.3431 29.8514 16.7986 30.7081 18.7159 31.0097C19.4213 31.1206 20.6225 31.0969 20.8695 30.9671ZM28.7682 30.9295C30.4136 30.5996 31.8423 29.6921 32.7458 28.403C33.4804 27.355 33.7752 26.4564 33.7752 25.2657C33.7752 24.3923 33.698 24.0296 33.3632 23.3313C32.753 22.0587 31.5195 21.1405 29.9656 20.8023C29.1653 20.6281 24.8101 20.6534 24.5946 20.8335C24.4255 20.9748 24.5176 21.1244 24.9214 21.3641C26.2763 22.1684 26.7388 23.3624 26.228 24.737C25.995 25.364 25.4057 25.9055 24.647 26.19C24.6074 26.2049 24.57 26.2202 24.5349 26.236C24.1614 26.403 24.3497 26.7674 24.7584 26.7848C25.2313 26.8049 25.6586 26.8545 25.8444 26.9109C26.2475 27.0332 26.6424 27.3335 26.8527 27.6777C27.1824 28.217 27.4915 28.3063 28.301 28.096C29.5037 27.7836 30.4488 26.7849 30.6345 25.6302C30.745 24.9426 30.7896 24.826 30.9792 24.7272C31.2175 24.6032 31.5556 24.6542 31.7423 24.8425C31.8731 24.9744 31.8856 25.0244 31.8726 25.3653C31.8212 26.7192 30.9575 28.0405 29.6871 28.7085C28.9695 29.0859 28.4901 29.1967 27.3759 29.2426C26.317 29.2863 26.1626 29.3234 25.921 29.5918C25.7376 29.7955 25.6773 29.9476 25.6773 30.2067C25.6773 30.595 25.9901 30.948 26.4121 31.036C26.6474 31.0851 28.3839 31.0066 28.7682 30.9295ZM24.262 25.1834C24.8212 24.932 25.2302 24.3368 25.2312 23.7729C25.2324 23.1462 24.9023 22.638 24.3002 22.3396C23.9788 22.1803 23.871 22.1553 23.5053 22.1553C23.1398 22.1553 23.0319 22.1803 22.7111 22.3393C21.7181 22.8315 21.4652 24.0284 22.1945 24.784C22.7472 25.3565 23.5374 25.5091 24.262 25.1834ZM19.5214 18.115C19.9927 17.9914 20.3427 17.7808 20.6951 17.4088C21.2838 16.7875 21.4702 16.0353 21.2305 15.2484C20.7573 13.6946 18.6441 13.0632 17.2871 14.0702C16.9079 14.3516 16.7065 14.6013 16.4986 15.0478C16.3691 15.3261 16.3489 15.4411 16.3489 15.902C16.3489 16.3634 16.369 16.4779 16.4991 16.7573C16.7884 17.3788 17.4463 17.9328 18.1078 18.1119C18.5071 18.2199 19.116 18.2213 19.5214 18.115ZM28.8777 18.115C29.349 17.9914 29.6989 17.7808 30.0513 17.4088C30.64 16.7875 30.8264 16.0353 30.5867 15.2484C30.1078 13.676 27.9708 13.0559 26.6145 14.0959C25.0797 15.2728 25.5107 17.4869 27.3925 18.0926C27.7882 18.22 28.4396 18.2298 28.8777 18.115Z" fill="#237131"/>
</g>
</svg>
