<svg width="40" height="40" viewBox="0 0 40 40" fill="none" xmlns="http://www.w3.org/2000/svg">
<g id="education" clip-path="url(#clip0_10_485)">
<path id="Vector" d="M7.72533 30.9284L10.0953 19.7232C10.1868 19.2909 9.91045 18.8664 9.47818 18.775C9.04592 18.6835 8.62138 18.9598 8.52994 19.3921L6.15994 30.5973C6.06849 31.0296 6.34482 31.4541 6.77709 31.5455C7.20935 31.637 7.63388 31.3607 7.72533 30.9284ZM30.0325 19.7258L32.4457 30.9394C32.5386 31.3714 32.9642 31.6462 33.3961 31.5532C33.828 31.4602 34.1028 31.0347 34.0099 30.6028L31.5967 19.3892C31.5037 18.9573 31.0782 18.6825 30.6463 18.7754C30.2144 18.8684 29.9395 19.2939 30.0325 19.7258Z" fill="#237131"/>
<path id="Vector_2" d="M37.791 15.1134L20.9336 8.12992C20.5191 7.95808 19.7395 7.9564 19.3239 8.12648L2.25859 15.1133L19.3243 22.0999C19.7393 22.27 20.5189 22.2684 20.9339 22.0966L37.791 15.1133V15.1134ZM21.5462 23.5748C20.7411 23.9082 19.5232 23.9107 18.7177 23.5805L0.954531 16.3084C-0.318398 15.7865 -0.318398 14.4393 0.954883 13.9182L18.7178 6.64578C19.5241 6.31578 20.7419 6.31835 21.5462 6.65187L39.0788 13.915C40.347 14.4401 40.347 15.7866 39.079 16.3116L21.5462 23.5748ZM32.8225 30.0814C28.9943 32.3301 24.6323 33.5328 20.0925 33.5328C15.547 33.5328 11.1799 32.3271 7.34848 30.0733C6.96766 29.8493 6.47734 29.9764 6.25332 30.3572C6.0293 30.738 6.15641 31.2284 6.53723 31.4524C10.6129 33.8499 15.2598 35.1328 20.0925 35.1328C24.9192 35.1328 29.5607 33.853 33.6329 31.461C34.0138 31.2373 34.1413 30.747 33.9175 30.366C33.6937 29.9851 33.2034 29.8577 32.8225 30.0814Z" fill="#237131"/>
<path id="Vector_3" d="M38.4343 14.963V26.5346C38.4343 26.9764 38.7925 27.3346 39.2343 27.3346C39.6762 27.3346 40.0343 26.9764 40.0343 26.5346V14.963C40.0343 14.5211 39.6762 14.163 39.2343 14.163C38.7925 14.163 38.4343 14.5211 38.4343 14.963Z" fill="#237131"/>
</g>
<defs>
<clipPath id="clip0_10_485">
<rect width="40" height="40" fill="white"/>
</clipPath>
</defs>
</svg>
