<svg xmlns="http://www.w3.org/2000/svg" width="24" height="24" viewBox="0 0 24 24" fill="none">
  <path d="M4.73066 23.9399C3.80437 23.7249 3.04507 23.0461 2.71635 22.1392C2.49945 21.5409 2.50531 21.6763 2.50399 17.227C2.50327 14.976 2.49051 13.1137 2.47552 13.0887C2.4571 13.0579 2.20184 13.0373 1.68782 13.0252C0.812203 13.0045 0.682273 12.9715 0.397461 12.6972C0.299301 12.6027 0.170304 12.4217 0.109759 12.2936C0.00888136 12.0801 0 12.0276 0 11.6441C0 11.2582 0.00806061 11.2113 0.107321 11.0194C0.227001 10.788 0.474362 10.539 3.98771 7.11305C5.16084 5.96909 7.05547 4.11948 8.19799 3.0028C10.7776 0.481541 10.9305 0.33756 11.1628 0.211146C11.7275 -0.096215 12.4325 -0.0658685 12.9522 0.28817C13.13 0.409284 15.502 2.70514 20.8825 7.96373C23.6295 10.6485 23.7943 10.8176 23.9088 11.0679C23.9866 11.2382 23.9996 11.3234 24 11.664C24.0004 12.0211 23.9901 12.0823 23.8985 12.2685C23.6786 12.7153 23.413 12.929 22.9972 12.9933C22.8553 13.0153 22.468 13.0336 22.1364 13.0341C21.8049 13.0345 21.5304 13.0393 21.5265 13.0448C21.5225 13.0503 21.5086 14.968 21.4956 17.3065C21.4752 20.9463 21.4637 21.5868 21.4154 21.7569C21.1147 22.8163 20.4277 23.564 19.4563 23.889L19.1781 23.9821H16.7086H14.2391L14.0886 23.8755C13.9941 23.8085 13.9055 23.6977 13.8502 23.5775L13.7622 23.3861L13.7522 19.9191L13.7421 16.4522H12.0027H10.2633L10.2504 19.939C10.2362 23.7762 10.2519 23.5282 10.0097 23.769C9.76445 24.0128 9.88787 24.0023 7.31881 23.9988C5.45136 23.9964 4.92159 23.9843 4.73066 23.9399ZM8.69898 18.9257C8.69912 16.6016 8.71195 15.4691 8.73938 15.3633C8.79593 15.1451 9.05046 14.868 9.23665 14.8219C9.32011 14.8012 10.5709 14.7847 12.0956 14.7842L14.8061 14.7834L14.9641 14.9283C15.051 15.0079 15.1625 15.1417 15.2119 15.2255L15.3017 15.3778V18.8576V22.3373L17.1472 22.3254L18.9926 22.3134L19.2024 22.208C19.4613 22.078 19.6813 21.8406 19.8169 21.5449L19.92 21.32L19.9385 16.6311L19.9571 11.9423L20.0441 11.7924C20.1303 11.6438 20.2966 11.4886 20.4393 11.4235C20.4801 11.4049 20.8522 11.3799 21.2662 11.3679L22.0189 11.3462L19.8403 9.22033C11.6349 1.21328 12.1108 1.67038 11.9804 1.67038C11.8989 1.67038 11.795 1.77048 5.17856 8.22683L1.98192 11.3461L2.7558 11.366C3.52465 11.3857 3.53068 11.3865 3.68426 11.4955C3.76929 11.5558 3.88486 11.681 3.94109 11.7737L4.04333 11.9421L4.06187 16.6509L4.0804 21.3596L4.16922 21.5384C4.36267 21.9279 4.57347 22.1286 4.92616 22.2591C5.1012 22.3239 5.28477 22.3307 6.90889 22.3318L8.69873 22.333L8.69898 18.9257Z" fill="#237131"/>
</svg>