<svg xmlns="http://www.w3.org/2000/svg" width="24" height="15" viewBox="0 0 24 15" fill="none">
  <path d="M1.03622 14.6316C0.558936 14.4543 0.183881 14.0373 0.0508026 13.536C0.00566561 13.3657 0.00116168 12.8621 0.00872051 8.71585L0.0173544 4.08574L0.1089 3.95603C0.348126 3.61726 0.798808 3.61891 1.03929 3.95836L1.12849 4.08456L1.14362 8.64758C1.1609 13.5403 1.15224 13.2852 1.31508 13.4027C1.37188 13.4435 2.96319 13.4519 11.9636 13.4594C21.3326 13.4664 22.5569 13.4617 22.6461 13.4164C22.8571 13.3084 22.8407 13.7803 22.8498 7.54182C22.8584 1.38435 22.8671 1.73051 22.6906 1.60359C22.6278 1.55857 21.2811 1.55041 11.4925 1.53525C3.11239 1.52359 0.35022 1.50818 0.302405 1.47809C-0.0292975 1.26955 -0.101967 0.788949 0.153586 0.493701C0.200451 0.439582 0.284909 0.374034 0.34106 0.347908C0.427231 0.308019 2.19755 0.300781 11.6036 0.300781H22.764L22.9578 0.37124C23.4374 0.545724 23.8134 0.960077 23.9497 1.46417C23.9948 1.63096 24 2.26213 24 7.50858C24 13.3298 23.9996 13.368 23.9348 13.576C23.7732 14.0942 23.3896 14.5003 22.9229 14.6475C22.767 14.6967 21.7207 14.7018 11.9867 14.7006C1.2606 14.6995 1.2226 14.7009 1.03622 14.6316ZM4.92208 11.7466C4.77306 11.6369 4.70654 11.5273 4.65205 11.2996C4.53738 10.8217 4.29727 10.498 3.89421 10.2782C3.75211 10.2008 3.60942 10.1117 3.57707 10.0802C3.42675 9.93438 3.42956 9.98079 3.42956 7.50215C3.42956 5.83939 3.44035 5.14504 3.46519 5.09171C3.53451 4.94615 3.63363 4.86123 3.89102 4.72666C4.29805 4.51392 4.53494 4.19791 4.65037 3.71385C4.70631 3.47893 4.77175 3.36943 4.92115 3.25951L5.02611 3.18231H7.42179C9.78522 3.18231 9.81902 3.18325 9.93288 3.25321C10.0981 3.35468 10.1689 3.4753 10.1848 3.68251C10.2021 3.90785 10.1105 4.10166 9.9371 4.20693C9.81853 4.27878 9.79778 4.27949 7.70325 4.27949H5.58906L5.48908 4.49386C5.27037 4.96238 5.00192 5.29595 4.6275 5.56447L4.44543 5.6951V7.50267V9.31026L4.6275 9.44088C5.00287 9.7101 5.27131 10.0382 5.47531 10.4773L5.59084 10.7258H7.70421C9.78226 10.7258 9.81949 10.727 9.93298 10.7967C10.0982 10.8982 10.169 11.0188 10.1849 11.226C10.2 11.4299 10.1233 11.6177 9.97476 11.7373C9.89162 11.8043 9.83309 11.8061 7.45874 11.815L5.02783 11.8243L4.92208 11.7466ZM13.5855 11.7451C13.4209 11.6255 13.334 11.4627 13.334 11.2745C13.334 11.0862 13.421 10.9236 13.5855 10.8038L13.6926 10.7259H15.809H17.9254L18.0184 10.5125C18.2066 10.0814 18.5846 9.62388 18.9288 9.41081L19.0476 9.33732L19.0472 7.5029L19.0468 5.66848L18.8855 5.56561C18.5529 5.35357 18.1951 4.9046 18.003 4.45835L17.9261 4.2799H15.7935H13.6609L13.5326 4.1796C13.2304 3.94311 13.2466 3.45996 13.5637 3.25109C13.6646 3.18461 13.7285 3.18299 16.083 3.18275L18.4988 3.18261L18.6258 3.28199C18.7493 3.37856 18.8575 3.58662 18.8575 3.72732C18.8575 3.85096 19.0874 4.28513 19.2373 4.44445C19.3254 4.53799 19.507 4.67026 19.6708 4.75989C19.9187 4.89565 19.9613 4.93274 20.0241 5.06717L20.0956 5.22019V7.50484V9.78949L20.0228 9.94066C19.9598 10.0715 19.9125 10.1123 19.6695 10.2461C19.2206 10.493 18.9619 10.8283 18.8602 11.2948C18.8109 11.5203 18.7252 11.67 18.5961 11.755C18.4952 11.8214 18.4315 11.8231 16.0926 11.8233L13.6926 11.8234L13.5855 11.7451ZM11.4778 10.8194C11.3674 10.7002 11.3657 10.6944 11.3657 10.4102V10.122L11.1356 10.0796C10.663 9.99212 9.90274 9.59692 9.77398 9.37158C9.65714 9.16701 9.72256 8.85645 9.90441 8.75495C10.078 8.65791 10.2071 8.68707 10.5044 8.89025C10.7669 9.06963 11.0742 9.21634 11.2943 9.26745L11.3975 9.29148V8.54002V7.78858L11.1991 7.72931C10.6317 7.55973 10.1494 7.20118 9.9777 6.82112C9.89844 6.6457 9.89067 6.59367 9.89024 6.23437C9.88968 5.8547 9.89455 5.83117 9.998 5.60005C10.2374 5.07008 10.7684 4.69142 11.2721 4.69142C11.3554 4.69142 11.3658 4.67975 11.3658 4.58621C11.3658 4.3716 11.5027 4.21326 11.6894 4.21204C11.8637 4.2109 11.9762 4.32985 11.9987 4.53888L12.016 4.7045L12.2223 4.74672C12.4891 4.8013 12.6428 4.86219 12.9574 5.0391C13.2398 5.19773 13.3331 5.31581 13.3331 5.51425C13.3331 5.67637 13.2286 5.85055 13.0956 5.91062C12.9379 5.98177 12.8913 5.97407 12.6524 5.83714C12.4425 5.71677 12.0613 5.54851 11.9987 5.54851C11.9793 5.54851 11.9702 5.80798 11.9756 6.27258L11.9842 6.99665L12.2656 7.09578C12.8643 7.30642 13.2263 7.5864 13.4038 7.97605C13.5032 8.19416 13.5079 8.22233 13.5079 8.6003C13.5079 8.97794 13.5036 9.00646 13.4043 9.22364C13.2797 9.49707 13.006 9.7861 12.7461 9.91895C12.5944 9.99639 12.3687 10.0668 12.0716 10.1296C12.0042 10.1436 12 10.1613 12 10.4335C12 10.7854 11.9409 10.8898 11.7231 10.9213C11.6011 10.94 11.5797 10.9302 11.4778 10.8194ZM12.2635 9.25136C12.5409 9.1394 12.6674 8.95016 12.6674 8.6475C12.6674 8.46088 12.611 8.33542 12.4652 8.19714C12.3779 8.11433 12.0566 7.9485 11.9836 7.9485C11.975 7.9485 11.9685 8.25712 11.9685 8.63429C11.9685 9.41868 11.9495 9.37819 12.2635 9.25136ZM11.3975 6.15202V5.48705L11.2628 5.51971C11.0346 5.575 10.8809 5.68718 10.8023 5.85556C10.6896 6.09697 10.7146 6.35804 10.8679 6.53857C10.9375 6.62045 11.2833 6.81687 11.3579 6.81692C11.3884 6.81694 11.3975 6.66113 11.3975 6.15202Z" fill="#237131"/>
</svg>