<svg xmlns="http://www.w3.org/2000/svg" width="24" height="23" viewBox="0 0 24 23" fill="none">
  <path d="M1.10926 22.4531C0.754855 22.3522 0.386568 22.0533 0.198854 21.7144C-0.00654996 21.3435 0.000462227 21.5286 0.0101889 16.7353L0.0190331 12.3944L0.0954221 12.2792C0.225363 12.0834 0.365702 12.0063 0.592317 12.0063C0.765995 12.0063 0.804528 12.0196 0.911645 12.1081C0.978653 12.164 1.06201 12.2597 1.09686 12.3208C1.15919 12.4299 1.16053 12.5059 1.17612 16.7779L1.19187 21.1239L1.27978 21.2145L1.36768 21.3054L11.9632 21.3143C22.5086 21.3232 22.5591 21.3232 22.6625 21.2571C22.7196 21.221 22.7802 21.1537 22.7972 21.1076C22.8168 21.0543 22.8281 19.0516 22.8281 15.6214C22.8281 9.75727 22.838 10.0903 22.6614 9.98612C22.6042 9.95248 20.4239 9.94112 11.4765 9.92776L0.362705 9.91216L0.242532 9.81749C-0.0923277 9.55368 -0.0509485 9.01077 0.318879 8.8159C0.444097 8.74996 0.470624 8.74974 11.5829 8.74974C23.8662 8.74974 22.8585 8.73191 23.2266 8.94821C23.4338 9.06961 23.7168 9.37689 23.8255 9.59849C24.0066 9.96756 24 9.74038 24 15.6258C24 20.208 23.9929 21.0791 23.9545 21.2665C23.8404 21.8224 23.4461 22.2722 22.9278 22.4377C22.7292 22.5012 22.5756 22.502 11.9908 22.4991C3.4142 22.4969 1.22595 22.4865 1.10926 22.4531ZM4.92847 19.6873C4.78893 19.5993 4.73717 19.5109 4.64712 19.2059C4.50422 18.722 4.27249 18.4509 3.79689 18.2112C3.60298 18.1134 3.55905 18.0751 3.49821 17.9505L3.42689 17.8043V15.6226V13.4409L3.50045 13.2965C3.5642 13.1716 3.61116 13.133 3.8524 13.0077C4.01193 12.9248 4.19582 12.7976 4.28311 12.7099C4.4542 12.5377 4.61515 12.2357 4.66585 11.9915C4.70838 11.7867 4.80589 11.6373 4.94805 11.5593C5.05274 11.5018 5.18296 11.4987 7.43711 11.4987C9.69126 11.4987 9.82148 11.5009 9.92616 11.5593C10.0643 11.635 10.1675 11.7883 10.1954 11.9588C10.2231 12.1281 10.1134 12.3682 9.9606 12.4728L9.85288 12.5465L7.72565 12.5466L5.59842 12.5468L5.45939 12.828C5.29769 13.155 4.89727 13.615 4.63554 13.7744L4.47428 13.8726L4.47518 15.6244L4.47607 17.3762L4.65232 17.4909C4.93157 17.6725 5.29842 18.0954 5.4599 18.422L5.59842 18.7021L7.70706 18.7023C9.6983 18.7024 9.82185 18.7067 9.92616 18.7631C10.0643 18.8388 10.1675 18.9921 10.1954 19.1626C10.2231 19.3319 10.1134 19.572 9.9606 19.6765L9.85288 19.7503L7.44033 19.7501C5.12133 19.75 5.02395 19.7477 4.92847 19.6873ZM13.5837 19.6877C13.3445 19.5372 13.2621 19.2477 13.387 18.9973C13.4274 18.9164 13.5088 18.8169 13.5681 18.7763L13.6758 18.7023H15.7947H17.9135L18.0128 18.4976C18.2227 18.0651 18.5089 17.7255 18.8754 17.4741L19.0557 17.3505V15.6244V13.8982L18.8734 13.7732C18.497 13.5154 18.1415 13.0882 17.9805 12.7001L17.9172 12.5478L15.768 12.5388C13.6958 12.5299 13.616 12.5277 13.5378 12.4664C13.3923 12.3522 13.3372 12.2464 13.3244 12.0568C13.3101 11.8474 13.3837 11.702 13.5688 11.5731L13.6758 11.4987H16.0757H18.4757L18.5826 11.5731C18.7244 11.6718 18.8203 11.8243 18.8463 11.9923C18.9075 12.3872 19.2358 12.7955 19.6738 13.0214C19.8481 13.1112 19.9498 13.1869 19.9988 13.2635L20.0701 13.3746V15.6149C20.0701 17.21 20.0598 17.8757 20.0344 17.9266C19.9651 18.0656 19.8662 18.1467 19.6092 18.2752C19.2086 18.4755 18.9072 18.863 18.8463 19.2562C18.8203 19.4242 18.7244 19.5768 18.5826 19.6754L18.4756 19.7498L16.0789 19.7497C13.7814 19.7496 13.6782 19.7479 13.5837 19.6877ZM11.5522 18.8657C11.4275 18.8138 11.3732 18.6819 11.3587 18.3957L11.3451 18.1289L11.0328 18.0581C10.7056 17.9839 10.2368 17.7763 9.97308 17.5889C9.72468 17.4125 9.64719 17.2075 9.75065 17.0009C9.87955 16.7434 10.1318 16.6967 10.3926 16.8819C10.6722 17.0806 11.2067 17.327 11.358 17.327C11.3722 17.327 11.3839 17.0059 11.3839 16.6134V15.8998L11.1065 15.8075C10.3074 15.5417 9.92853 15.1493 9.87249 14.5295C9.80507 13.7838 10.3662 13.0731 11.1096 12.9625L11.346 12.9273L11.3658 12.799C11.4323 12.3698 11.9621 12.3853 12.0093 12.8168C12.0235 12.9473 12.0366 12.9712 12.094 12.9712C12.3185 12.9712 12.9951 13.2481 13.1949 13.4218C13.446 13.6401 13.3192 14.0709 12.9848 14.1357C12.8953 14.1535 12.8294 14.1313 12.6166 14.019C12.408 13.9081 12.0508 13.757 11.9971 13.757C11.991 13.757 11.9863 14.0708 11.9863 14.4544V15.1518L12.23 15.2258C12.8318 15.4087 13.2987 15.7654 13.4358 16.1471C13.6708 16.8013 13.4494 17.5006 12.8991 17.842C12.6909 17.9712 12.425 18.0709 12.2004 18.1042L12.0338 18.1289L12.017 18.4187C12.0011 18.6944 11.9953 18.713 11.8977 18.8031C11.7925 18.9002 11.6839 18.9207 11.5522 18.8657ZM12.3809 17.2317C12.5751 17.1195 12.661 16.9644 12.661 16.7259C12.661 16.4274 12.5211 16.2603 12.1489 16.1142L11.9863 16.0503V16.7086V17.367L12.1051 17.3448C12.1705 17.3336 12.2946 17.2816 12.3809 17.2317ZM11.3839 14.3345V13.6995L11.2538 13.7298C11.1822 13.7454 11.0859 13.7804 11.0398 13.8053C10.73 13.9726 10.6341 14.407 10.8457 14.6849C10.9091 14.7682 11.26 14.9697 11.3415 14.9697C11.3755 14.9697 11.3839 14.8435 11.3839 14.3345ZM3.60124 7.27522C0.110103 7.2574 0.353065 7.27299 0.155719 7.05669C-0.0519063 6.83002 -0.0519063 6.47531 0.155719 6.24863C0.355839 6.0301 0.00872437 6.04523 4.44133 6.06328C13.1268 6.09869 15.5266 6.06551 17.7876 5.88173C20.3242 5.67479 21.8012 5.29935 22.5155 4.6799C22.6365 4.57498 22.7715 4.47496 22.8156 4.45759C22.9296 4.41281 23.13 4.41884 23.2497 4.47096C23.3852 4.52933 23.5457 4.72214 23.5871 4.87604C23.6355 5.05603 23.6312 6.65872 23.5819 6.82877C23.4682 7.22076 22.993 7.38218 22.6643 7.14046C22.4957 7.01639 22.4392 6.87086 22.4227 6.51825C22.4145 6.34049 22.4006 6.19487 22.392 6.19487C22.3834 6.19487 22.2524 6.24611 22.1009 6.3087C21.1725 6.69234 19.6384 6.97272 17.6292 7.126C15.2761 7.30554 13.2738 7.32645 3.60124 7.27522ZM0.31391 4.88322C-0.0249044 4.69833 -0.101516 4.22815 0.157529 3.92333C0.185932 3.88991 0.259112 3.83667 0.320146 3.80504C0.423172 3.7518 0.685998 3.74623 3.99751 3.72641C9.83401 3.69188 12.2924 3.5961 14.665 3.31094C17.9463 2.91659 19.9481 2.13796 20.8449 0.907212C21.079 0.585949 21.1747 0.518357 21.4161 0.50361C21.5849 0.492472 21.625 0.503453 21.7537 0.588926C21.8513 0.653749 21.9226 0.734612 21.9688 0.833317C22.0365 0.977665 22.0377 1.00551 22.0288 2.15782L22.0198 3.33484L21.9291 3.47005C21.6971 3.81564 21.2165 3.82447 20.9676 3.48788C20.8841 3.37494 20.8779 3.34442 20.8679 2.99643C20.8621 2.79238 20.8507 2.62537 20.8427 2.62537C20.8347 2.62537 20.7236 2.69822 20.5957 2.78732C19.0162 3.88817 16.265 4.51344 11.8753 4.76914C9.71602 4.895 7.07152 4.94958 3.22085 4.94824C0.516077 4.94724 0.427521 4.94603 0.31391 4.88322Z" fill="#237131"/>
</svg>