<svg xmlns="http://www.w3.org/2000/svg" width="24" height="24" viewBox="0 0 24 24" fill="none">
  <path d="M11.0715 23.9875C9.33921 23.8109 8.03074 23.4456 6.63516 22.7486C5.36705 22.1152 4.39657 21.4009 3.37005 20.3454C1.55145 18.4754 0.440749 16.1816 0.0678243 13.5258C-0.0233384 12.877 -0.0223361 11.1131 0.0692229 10.4679C0.409076 8.07669 1.31485 6.02889 2.8308 4.22471C3.21091 3.77234 4.11494 2.90129 4.5731 2.546C6.31411 1.1959 8.26043 0.378089 10.4706 0.0678981C11.1196 -0.0232399 12.8839 -0.0224915 13.5293 0.0693152C15.9212 0.409052 17.9695 1.3146 19.7742 2.83014C20.2267 3.21015 21.098 4.11393 21.4534 4.57198C22.8038 6.31251 23.6219 8.25827 23.9322 10.4679C24.0233 11.1166 24.0223 12.8806 23.9307 13.5258C23.5909 15.917 22.6851 17.9648 21.1691 19.7689C20.7891 20.2213 19.885 21.0924 19.4269 21.4476C17.6973 22.7889 15.7328 23.6176 13.5657 23.9202C13.1652 23.9762 11.4216 24.0232 11.0715 23.9875ZM13.3291 22.6084C16.5034 22.1941 19.1989 20.5047 20.9668 17.8214C21.8359 16.5021 22.3879 14.9952 22.6201 13.3073C22.7058 12.6838 22.7056 11.3176 22.6196 10.6863C22.1795 7.45883 20.5172 4.80445 17.8261 3.03249C16.5065 2.16356 14.9992 1.61177 13.3109 1.37959C12.6871 1.2939 11.3206 1.29415 10.6891 1.38016C7.46074 1.82007 4.80565 3.482 3.03318 6.17231C2.16404 7.49153 1.6121 8.99847 1.37985 10.6863C1.29414 11.3099 1.29439 12.676 1.38042 13.3073C1.55333 14.5759 1.89325 15.7065 2.41451 16.7475C4.10174 20.1169 7.35422 22.3241 11.1282 22.6608C11.6374 22.7061 12.7893 22.6782 13.3291 22.6084ZM12.0325 16.3107C11.8542 16.2139 11.818 16.1106 11.818 15.6996V15.3227L11.4812 15.2631C11.0598 15.1883 10.6469 15.0555 10.2704 14.8736C9.466 14.4848 9.25817 14.2124 9.44765 13.7953C9.60718 13.4442 10.0148 13.3874 10.4161 13.6601C10.5362 13.7418 10.7493 13.8659 10.8894 13.9359C11.1367 14.0592 11.6948 14.2537 11.8017 14.2537C11.8465 14.2537 11.8544 14.1049 11.8544 13.2723V12.2908L11.6996 12.2499C10.8029 12.0134 10.1806 11.6615 9.89029 11.2269C9.71217 10.9601 9.63496 10.7221 9.60766 10.3547C9.55043 9.58668 9.94223 8.92973 10.6705 8.57202C10.975 8.42243 11.4514 8.28353 11.6599 8.28353C11.7724 8.28353 11.7815 8.27363 11.7835 8.16516C11.7885 7.84377 11.9859 7.6282 12.2735 7.6282C12.5331 7.6282 12.7282 7.84441 12.7282 8.13192C12.7282 8.27482 12.7288 8.27531 12.8997 8.30082C13.4687 8.38626 14.3615 8.76819 14.5407 9.00306C14.6197 9.10658 14.64 9.17222 14.64 9.3245C14.64 9.62347 14.4401 9.84123 14.1343 9.8757C13.9856 9.89304 13.9229 9.87323 13.5915 9.70854C13.226 9.527 12.8391 9.37552 12.7408 9.37552C12.6715 9.37552 12.6682 11.2637 12.7383 11.2844C12.7634 11.2918 12.9314 11.3413 13.1116 11.3943C13.637 11.5489 14.1573 11.8235 14.4281 12.089C15.1123 12.7597 15.1235 13.8814 14.4529 14.5842C14.1066 14.9471 13.6226 15.1847 13.0238 15.2855L12.7474 15.332L12.7301 15.7002C12.7103 16.0959 12.6572 16.2235 12.4717 16.3188C12.3557 16.3783 12.1504 16.3736 12.0325 16.3107ZM13.2366 14.1353C13.4242 14.0412 13.4944 13.9807 13.5826 13.838C13.6777 13.684 13.6928 13.625 13.6906 13.4194C13.6881 13.1566 13.6329 13.0188 13.4689 12.8636C13.3628 12.7633 12.9709 12.5658 12.7919 12.5227L12.6919 12.498V13.3984V14.2989L12.8467 14.2766C12.9319 14.2642 13.1072 14.2001 13.2366 14.1353ZM11.8543 10.1717V9.2931L11.6894 9.31538C11.1228 9.39289 10.7732 9.80785 10.8652 10.2936C10.9043 10.5006 10.974 10.6131 11.1408 10.7404C11.2664 10.8363 11.7231 11.0472 11.8088 11.049C11.844 11.0498 11.8543 10.8508 11.8543 10.1717Z" fill="#237131"/>
</svg>