<svg xmlns="http://www.w3.org/2000/svg" width="24" height="24" viewBox="0 0 24 24" fill="none">
  <mask id="mask0_9331_8298" style="mask-type:alpha" maskUnits="userSpaceOnUse" x="2" y="3" width="20" height="18">
    <path fill-rule="evenodd" clip-rule="evenodd" d="M4.20039 3.19922C3.20039 3.19922 2.40039 3.99922 2.40039 4.99922V18.9992C2.40039 19.9992 3.20039 20.7992 4.20039 20.7992H12.2004C13.2004 20.7992 14.0004 19.9992 14.0004 18.9992V15.1992H12.4004V18.9992V19.1992H12.2004H4.20039H4.00039V18.9992V4.99922V4.79922H4.20039H12.2004H12.4004V4.99922V8.79922H14.0004V4.99922C14.0004 3.99922 13.2004 3.19922 12.2004 3.19922H4.20039ZM16.9006 7.29932L21.6006 11.9993L16.9006 16.6993L15.7006 15.5993L18.2006 13.0993L18.5006 12.7993H18.0006H8.60059V11.1993H18.0006H18.5006L18.2006 10.8993L15.7006 8.39932L16.9006 7.29932Z" fill="black"/>
  </mask>
  <g mask="url(#mask0_9331_8298)">
    <rect width="24" height="24" fill="#237131"/>
  </g>
</svg>