<svg xmlns="http://www.w3.org/2000/svg" width="40" height="36" viewBox="0 0 40 36">
    <g fill="none" fill-rule="evenodd" transform="translate(0 1)">
        <g fill="#26336A">
            <path d="M11.083 29.167a2.917 2.917 0 1 0 0 5.833 2.917 2.917 0 0 0 0-5.833zm0 4.537a1.62 1.62 0 1 1 0-3.24 1.62 1.62 0 0 1 0 3.24zM23.917 29.167a2.917 2.917 0 1 0 0 5.833 2.917 2.917 0 0 0 0-5.833zm0 4.537a1.62 1.62 0 1 1 0-3.24 1.62 1.62 0 0 1 0 3.24zM31.351 9.614a.91.91 0 0 0-.585-.296L6.98 8.986l-.658-2.03a3.365 3.365 0 0 0-3.142-2.29H.73c-.404 0-.731.331-.731.739s.327.738.73.738H3.18a1.902 1.902 0 0 1 1.754 1.293l4.64 14.14-.365.848c-.407 1.062-.425 1.904.189 2.859a3.39 3.39 0 0 0 2.74 1.55h14.214c.404 0 .731-.33.731-.738a.735.735 0 0 0-.73-.738H12.136a1.86 1.86 0 0 1-1.534-.886c-.328-.531-.256-.832-.043-1.42l.292-.664 15.383-1.624a4.034 4.034 0 0 0 3.472-3.101l1.754-7.42a.633.633 0 0 0-.11-.628zm-3.07 7.716a2.493 2.493 0 0 1-2.228 1.956l-15.2 1.588-3.399-10.411 22.399.332-1.571 6.535z"/>
        </g>
    </g>
</svg>
