<svg width="22" height="22" viewBox="0 0 22 22" fill="none" xmlns="http://www.w3.org/2000/svg">
<path d="M4.33644 21.4475C3.48734 21.2592 2.79131 20.6653 2.48999 19.8718C2.29117 19.3483 2.29653 19.4667 2.29532 15.5736C2.29467 13.604 2.28297 11.9745 2.26923 11.9526C2.25234 11.9257 2.01835 11.9077 1.54717 11.8971C0.744519 11.879 0.625417 11.8501 0.364339 11.6101C0.27436 11.5273 0.156112 11.369 0.100613 11.2569C0.00814125 11.0701 0 11.0241 0 10.6886C0 10.3509 0.00738889 10.3099 0.0983775 10.142C0.208084 9.93954 0.434832 9.72165 3.6554 6.72392C4.73077 5.72295 6.46751 4.10454 7.51483 3.12745C9.87948 0.921348 10.0196 0.795365 10.2325 0.684753C10.7502 0.415812 11.3965 0.442365 11.8729 0.752148C12.0358 0.858123 14.2102 2.867 19.1423 7.46826C21.6603 9.81744 21.8114 9.96537 21.9164 10.1844C21.9877 10.3334 21.9997 10.408 22 10.706C22.0003 11.0184 21.9909 11.072 21.9069 11.2349C21.7054 11.6259 21.4619 11.8129 21.0808 11.8692C20.9507 11.8884 20.5956 11.9044 20.2917 11.9048C19.9878 11.9052 19.7362 11.9094 19.7326 11.9142C19.729 11.919 19.7162 13.597 19.7043 15.6432C19.6856 18.828 19.675 19.3885 19.6308 19.5373C19.3552 20.4642 18.7254 21.1185 17.835 21.4029L17.5799 21.4844H15.3162H13.0525L12.9146 21.391C12.8279 21.3324 12.7467 21.2355 12.696 21.1303L12.6154 20.9628L12.6062 17.9292L12.5969 14.8956H11.0025H9.408L9.39617 17.9466C9.38315 21.3041 9.39756 21.0872 9.17553 21.2979C8.95074 21.5112 9.06388 21.502 6.70891 21.499C4.99708 21.4969 4.51146 21.4862 4.33644 21.4475ZM7.97406 17.06C7.97419 15.0264 7.98595 14.0354 8.0111 13.9429C8.06294 13.752 8.29625 13.5095 8.46693 13.4691C8.54344 13.4511 9.68997 13.4366 11.0876 13.4362L13.5722 13.4355L13.7171 13.5622C13.7968 13.632 13.899 13.749 13.9442 13.8223L14.0265 13.9556V17.0004V20.0452L15.7182 20.0347L17.4099 20.0242L17.6022 19.932C17.8395 19.8183 18.0412 19.6105 18.1655 19.3518L18.26 19.155L18.277 15.0522L18.294 10.9495L18.3737 10.8183C18.4528 10.6883 18.6052 10.5525 18.736 10.4955C18.7734 10.4792 19.1145 10.4574 19.494 10.4469L20.1839 10.4279L18.1869 8.56779C10.6654 1.56162 11.1016 1.96158 10.9821 1.96158C10.9073 1.96158 10.8121 2.04917 4.74701 7.69848L1.81676 10.4278L2.52615 10.4452C3.23093 10.4625 3.23645 10.4632 3.37724 10.5586C3.45518 10.6114 3.56112 10.7209 3.61267 10.802L3.70639 10.9494L3.72338 15.0695L3.74037 19.1896L3.82179 19.3461C3.99911 19.6869 4.19235 19.8625 4.51565 19.9767C4.6761 20.0334 4.84437 20.0393 6.33315 20.0404L7.97383 20.0414L7.97406 17.06Z" fill="#26336A"/>
</svg>
