<svg id="icon_investir" data-name="icon / investir" xmlns="http://www.w3.org/2000/svg" width="40" height="40" viewBox="0 0 40 40">
  <rect id="container" width="40" height="40" fill="none"/>
  <g id="Grupo_419" data-name="Grupo 419" transform="translate(-332 -4161)">
    <g id="Group" transform="translate(341 4177)">
      <g id="Group_3" data-name="Group 3">
        <path id="Path" d="M7.939,10H2.047a.418.418,0,0,1-.412-.347A2.077,2.077,0,0,0,.277,8.045.415.415,0,0,1,0,7.653V2.348a.416.416,0,0,1,.277-.393A2.075,2.075,0,0,0,1.635.347.418.418,0,0,1,2.047,0H7.939a.417.417,0,1,1,0,.833H2.378A2.91,2.91,0,0,1,.836,2.624V7.375A2.917,2.917,0,0,1,2.378,9.167H7.939a.417.417,0,1,1,0,.833Z" transform="translate(0)" fill="#237131" stroke="#237131" stroke-miterlimit="10" stroke-width="0.5"/>
        <path id="Path-2" data-name="Path" d="M.418,10H6.31a.418.418,0,0,0,.412-.347A2.077,2.077,0,0,1,8.08,8.045a.415.415,0,0,0,.277-.392V2.348a.416.416,0,0,0-.277-.393A2.075,2.075,0,0,1,6.722.347.418.418,0,0,0,6.31,0H.418a.417.417,0,1,0,0,.833H5.979A2.908,2.908,0,0,0,7.521,2.624V7.375A2.915,2.915,0,0,0,5.979,9.166H.418a.417.417,0,1,0,0,.834Z" transform="translate(13)" fill="#237131" stroke="#237131" stroke-miterlimit="10" stroke-width="0.5"/>
      </g>
      <path id="Subtração_2" data-name="Subtração 2" d="M10519.6,16673.152a.411.411,0,0,1-.415-.4v-.582a4.115,4.115,0,0,1-1.929-.736.523.523,0,0,1-.251-.453.515.515,0,0,1,.824-.414,3.4,3.4,0,0,0,1.394.633v-1.857c-1.448-.379-2.013-.922-2.013-1.937a1.877,1.877,0,0,1,1.975-1.795v-.2a.41.41,0,0,1,.415-.4.4.4,0,0,1,.405.4v.209a3.436,3.436,0,0,1,1.456.514.512.512,0,0,1-.242.971.5.5,0,0,1-.28-.082,3.45,3.45,0,0,0-.971-.416v1.809c1.431.357,2.042.938,2.042,1.941s-.769,1.717-2,1.832v.566A.4.4,0,0,1,10519.6,16673.152Zm.368-3.629v1.705c.59-.061.929-.359.929-.816C10520.894,16670.037,10520.738,16669.756,10519.965,16669.523Zm-.745-2.982c-.566.051-.9.348-.9.791,0,.49.318.686.9.875v-1.666Z" transform="translate(-10509 -16664)" fill="#237131" stroke="rgba(0,0,0,0)" stroke-miterlimit="10" stroke-width="1"/>
    </g>
    <path id="Path-3" data-name="Path" d="M30,11.864V1.231A1.216,1.216,0,0,0,28.8,0H1.2A1.216,1.216,0,0,0,0,1.231V14.769A1.216,1.216,0,0,0,1.2,16H30" transform="translate(367 4190) rotate(180)" fill="none" stroke="#237131" stroke-linecap="round" stroke-linejoin="round" stroke-miterlimit="10" stroke-width="1.5"/>
  </g>
</svg>
