<svg xmlns="http://www.w3.org/2000/svg" width="170" height="25" viewBox="0 0 170 25">
    <g fill="none" fill-rule="evenodd">
        <path fill="#263369" d="M41.819 9.49h6.923v1.558H43.59v3.612h4.693v1.559h-4.693v4.072h5.153v1.559H41.82zM57.052 11.349c-.904-.355-1.399-.514-2.32-.514-.991 0-2.16.354-2.16 1.647 0 2.373 5.313 1.824 5.313 5.897 0 2.638-2.037 3.683-4.516 3.683-.867 0-1.718-.248-2.533-.514l.178-1.647c.602.248 1.664.603 2.567.603 1.01 0 2.426-.567 2.426-2.02 0-2.762-5.312-2-5.312-5.843 0-2.196 1.735-3.365 3.966-3.365a8.24 8.24 0 0 1 2.638.444l-.247 1.629zM65.39 20.504c2.852 0 4.073-2.373 4.073-4.835 0-2.514-1.346-4.851-4.073-4.834-2.727-.017-4.072 2.32-4.072 4.834 0 2.462 1.221 4.835 4.072 4.835m0-11.227c3.754 0 5.95 2.727 5.95 6.392 0 3.755-2.177 6.393-5.95 6.393-3.772 0-5.95-2.638-5.95-6.393 0-3.665 2.196-6.392 5.95-6.392M82.767 16.744c0 3.47-1.753 5.33-4.799 5.33-3.045 0-4.799-1.86-4.799-5.33V9.5h1.77v7.012c0 2.374.745 4.002 3.03 4.002 2.283 0 3.027-1.628 3.027-4.002V9.5h1.771v7.243zM86.903 14.802h1.506c1.682 0 2.674-.744 2.674-1.93 0-1.116-.85-1.824-2.48-1.824h-1.7v3.754zm-1.77-5.312h3.028c2.444 0 4.798.39 4.798 3.346 0 1.506-1.115 2.568-2.55 2.816v.035c.55.213.815.478 1.204 1.24l2.338 4.923h-2.019l-1.894-4.286c-.55-1.205-1.133-1.205-2.072-1.205h-1.063v5.491h-1.77V9.49zM100.839 20.504c2.85 0 4.072-2.373 4.072-4.835 0-2.514-1.345-4.851-4.072-4.834-2.727-.017-4.073 2.32-4.073 4.834 0 2.462 1.222 4.835 4.073 4.835m0-11.227c3.754 0 5.95 2.727 5.95 6.392 0 3.755-2.178 6.393-5.95 6.393-3.773 0-5.95-2.638-5.95-6.393 0-3.665 2.196-6.392 5.95-6.392"/>
        <path fill="#263369" d="M35.736 6.416h-5.383V4.852h12.754v1.564h-5.35V21.85h-2.02zM124.948 21.833h1.8V9.268h-1.8zM131.064 14.669h1.53c1.71 0 2.719-.756 2.719-1.962 0-1.135-.865-1.855-2.52-1.855h-1.73v3.817zm-1.8-5.4h3.079c2.484 0 4.878.395 4.878 3.401 0 1.53-1.134 2.61-2.593 2.863v.036c.56.216.828.485 1.225 1.26l2.376 5.004h-2.052l-1.926-4.356c-.559-1.224-1.153-1.224-2.107-1.224h-1.08v5.58h-1.8V9.268zM139.84 9.501h6.909v1.555h-5.141v3.604h4.681v1.555h-4.681v4.064h5.14v1.554h-6.907zM151.823 11.046h-3.837V9.49h9.443v1.556h-3.837v10.787h-1.769zM163.814 20.466c2.898 0 4.141-2.413 4.141-4.915 0-2.557-1.368-4.933-4.14-4.915-2.773-.018-4.141 2.358-4.141 4.915 0 2.502 1.242 4.915 4.14 4.915m0-11.414c3.816 0 6.05 2.772 6.05 6.499 0 3.816-2.216 6.498-6.05 6.498-3.834 0-6.048-2.682-6.048-6.498 0-3.727 2.232-6.5 6.048-6.5M111.253 20.27h1.408c4.89 0 7.883-1.684 7.883-6.97 0-5.261-2.92-7.098-6.775-7.098h-2.516V20.27zm-1.959-15.66h4.273c6.175 0 8.875 3.556 8.875 8.595 0 6.249-4.429 8.645-10.135 8.645h-3.013V4.61z"/>
        <path fill="#237131" d="M.474 7.404c.737-.16 8.159-4.656 16.605-4.764.576-.007 1.143.033 1.697.1 4.857.568 4.921 2.673 5.204 2.6.399-.1 1.037-.695 1.053-.796.021-.127-.654-2.82-5.816-4.137C13.84-.965 2.12 1.503.994 2.321c-.918.588-1.422 5.451-.52 5.083"/>
        <path fill="#115428" d="M.474 7.404c.737-.16 8.159-4.656 16.605-4.764.576-.007 1.143.033 1.697.1 4.857.568 4.921 2.673 5.204 2.6.096-.023.206-.076.317-.143.042-.147-.976-2.241-5.08-2.732C11.513 1.517.015 6.258.021 6.653c.05.532.193.857.453.751"/>
        <path fill="#263369" d="M17.124 23.075c6.912-3.526 8.59-11.617 8.412-13.45-.114-.634-1.003-1.548-1.199-1.273-2.639 9.035-9.057 11.704-11.053 12.66-.618.375 1.712 2.54 3.267 2.308.118-.026.37-.138.573-.245"/>
        <path fill="#1E274A" d="M17.124 23.075c2.945-1.502 4.94-3.833 6.246-6.157.178-.408-4.952.915-5.159 1.1-2.053 1.708-3.984 2.543-4.927 2.995-.618.374 1.712 2.54 3.267 2.307.118-.026.37-.138.573-.245"/>
        <path fill="#ECC507" d="M15.203 23.839c-1.537-.157-4.52-2.076-4.886-6.066-.52-4.238 1.114-11.043 1.346-12.058.307-1.323.371-1.345-.287-1.344-1.41 0-4.006 1.07-4.159 1.656-.124.483-1.33 6.549-.64 11.117.304 2.003.917 3.417 1.598 4.43.881 1.286 3.24 3.628 7.058 2.298.012-.004-.022-.033-.03-.033"/>
    </g>
</svg>
