<svg id="icon_resgatar" data-name="icon / resgatar" xmlns="http://www.w3.org/2000/svg" width="40" height="40" viewBox="0 0 40 40">
  <rect id="container" width="40" height="40" fill="none"/>
  <circle id="Oval" cx="13" cy="13" r="13" transform="translate(7 7)" fill="none" stroke="#237131" stroke-miterlimit="10" stroke-width="1.5"/>
  <path id="Subtração_3" data-name="Subtração 3" d="M10458.3,16694a.51.51,0,0,1-.523-.494v-.721a5.233,5.233,0,0,1-2.451-.9.636.636,0,0,1,.336-1.189.676.676,0,0,1,.394.125,4.27,4.27,0,0,0,1.772.775v-2.275c-1.846-.465-2.564-1.131-2.564-2.379,0-1.225.986-2.088,2.514-2.205v-.242a.512.512,0,0,1,.523-.5.5.5,0,0,1,.516.5v.252a4.487,4.487,0,0,1,1.856.637.6.6,0,0,1,.355.553.645.645,0,0,1-.666.637.692.692,0,0,1-.36-.105,4.539,4.539,0,0,0-1.231-.508v2.217c1.817.441,2.594,1.152,2.594,2.381,0,1.244-.977,2.105-2.548,2.25v.7A.5.5,0,0,1,10458.3,16694Zm.47-4.455v2.1c.753-.076,1.186-.443,1.186-1C10459.954,16690.021,10459.5,16689.762,10458.769,16689.545Zm-.947-3.652c-.719.068-1.147.432-1.147.973,0,.461.188.77,1.147,1.072v-2.045Z" transform="translate(-10438 -16669)" fill="#237131"/>
</svg>
