<svg xmlns="http://www.w3.org/2000/svg" width="24" height="24" viewBox="0 0 24 24" fill="none">
  <g clip-path="url(#clip0_9331_8280)">
    <path d="M4.63527 18.5565L6.05727 11.8334C6.11214 11.5741 5.94634 11.3193 5.68698 11.2645C5.42762 11.2096 5.1729 11.3754 5.11804 11.6348L3.69604 18.3579C3.64117 18.6172 3.80697 18.872 4.06633 18.9268C4.32569 18.9817 4.5804 18.8159 4.63527 18.5565ZM18.0196 11.835L19.4675 18.5631C19.5233 18.8223 19.7786 18.9872 20.0377 18.9314C20.2969 18.8756 20.4618 18.6203 20.406 18.3612L18.9581 11.633C18.9023 11.3739 18.647 11.209 18.3878 11.2648C18.1287 11.3205 17.9638 11.5758 18.0196 11.835Z" fill="#237131"/>
    <path d="M22.6747 9.06786L12.5602 4.8778C12.3116 4.7747 11.8437 4.77369 11.5944 4.87573L1.35523 9.06784L11.5946 13.2598C11.8436 13.3619 12.3114 13.3609 12.5604 13.2578L22.6747 9.06784V9.06786ZM12.9278 14.1447C12.4448 14.3447 11.714 14.3463 11.2307 14.1481L0.572792 9.78486C-0.190966 9.47176 -0.190966 8.66345 0.573003 8.35077L11.2307 3.98731C11.7145 3.78931 12.4452 3.79086 12.9278 3.99097L23.4474 8.34884C24.2083 8.66389 24.2083 9.4718 23.4475 9.78683L12.9278 14.1447ZM19.6936 18.0487C17.3967 19.3979 14.7794 20.1196 12.0555 20.1196C9.32829 20.1196 6.708 19.3961 4.40916 18.0438C4.18067 17.9094 3.88648 17.9857 3.75207 18.2142C3.61765 18.4427 3.69392 18.7369 3.92241 18.8713C6.36778 20.3098 9.15593 21.0796 12.0555 21.0796C14.9516 21.0796 17.7365 20.3117 20.1798 18.8765C20.4084 18.7422 20.4848 18.4481 20.3506 18.2195C20.2163 17.9909 19.9221 17.9144 19.6936 18.0487Z" fill="#237131"/>
    <path d="M23.0605 8.97805V15.921C23.0605 16.1861 23.2754 16.401 23.5405 16.401C23.8056 16.401 24.0205 16.1861 24.0205 15.921V8.97805C24.0205 8.71295 23.8056 8.49805 23.5405 8.49805C23.2754 8.49805 23.0605 8.71295 23.0605 8.97805Z" fill="#237131"/>
  </g>
  <defs>
    <clipPath id="clip0_9331_8280">
      <rect width="24" height="24" fill="white"/>
    </clipPath>
  </defs>
</svg>